<?xml version="1.0" encoding="utf-8"?>
<!-- Generator: Adobe Illustrator 19.0.0, SVG Export Plug-In . SVG Version: 6.00 Build 0)  -->
<svg version="1.1" id="Layer_1" xmlns="http://www.w3.org/2000/svg" xmlns:xlink="http://www.w3.org/1999/xlink" x="0px" y="0px"
	 viewBox="138 -26.9 311.8 87.9" style="enable-background:new 138 -26.9 311.8 87.9;" xml:space="preserve">
<style type="text/css">
	.st0{fill:#43525A;}
	.st1{fill:none;stroke:#43525A;stroke-width:3.4016;stroke-miterlimit:10;}
</style>
<g id="XMLID_8_">
	<path id="XMLID_30_" class="st0" d="M248.3,19c0.2,0.3,0.3,0.7,0.5,1c0.1,0.3,0.3,0.7,0.4,1.1c0.1-0.4,0.3-0.7,0.4-1.1
		c0.2-0.4,0.3-0.7,0.5-1l6.5-12.1c0.1-0.2,0.2-0.3,0.3-0.4c0.1-0.1,0.2-0.2,0.3-0.2s0.2-0.1,0.4-0.1c0.1,0,0.3,0,0.5,0h3.1v21.9
		h-3.6V14c0-0.3,0-0.5,0-0.9c0-0.3,0-0.6,0.1-1l-6.6,12.4c-0.2,0.3-0.3,0.5-0.6,0.7c-0.2,0.2-0.5,0.2-0.8,0.2h-0.6
		c-0.3,0-0.6-0.1-0.8-0.2c-0.2-0.2-0.4-0.4-0.6-0.7l-6.9-12.4c0,0.3,0.1,0.7,0.1,1s0,0.6,0,0.9v14.1h-3.6V6.3h3.1c0.2,0,0.3,0,0.5,0
		c0.1,0,0.3,0,0.4,0.1c0.1,0,0.2,0.1,0.3,0.2c0.1,0.1,0.2,0.2,0.3,0.4L248.3,19z"/>
	<path id="XMLID_42_" class="st0" d="M291,17.2c0-1.2-0.2-2.3-0.5-3.2c-0.3-1-0.8-1.8-1.4-2.4c-0.6-0.7-1.3-1.2-2.2-1.5
		c-0.9-0.4-1.8-0.5-2.9-0.5c-1.1,0-2,0.2-2.9,0.5c-0.9,0.4-1.6,0.9-2.2,1.5c-0.6,0.7-1.1,1.5-1.4,2.4c-0.3,0.9-0.5,2-0.5,3.2
		s0.2,2.3,0.5,3.2c0.3,1,0.8,1.8,1.4,2.4c0.6,0.7,1.3,1.2,2.2,1.5c0.9,0.4,1.8,0.5,2.9,0.5c1.1,0,2-0.2,2.9-0.5
		c0.9-0.4,1.6-0.9,2.2-1.5c0.6-0.7,1.1-1.5,1.4-2.4C290.8,19.5,291,18.4,291,17.2 M295.2,17.2c0,1.6-0.3,3.1-0.8,4.5
		s-1.3,2.6-2.3,3.5c-1,1-2.1,1.8-3.5,2.3c-1.4,0.6-2.9,0.8-4.5,0.8c-1.7,0-3.2-0.3-4.5-0.8c-1.4-0.6-2.5-1.3-3.5-2.3
		s-1.7-2.2-2.3-3.5c-0.5-1.4-0.8-2.8-0.8-4.5c0-1.6,0.3-3.1,0.8-4.5s1.3-2.5,2.3-3.5s2.1-1.8,3.5-2.3c1.4-0.6,2.9-0.8,4.5-0.8
		c1.7,0,3.2,0.3,4.5,0.8c1.4,0.6,2.5,1.3,3.5,2.3s1.7,2.2,2.3,3.5C294.9,14.1,295.2,15.6,295.2,17.2z"/>
	<path id="XMLID_39_" class="st0" d="M322.4,17.2c0-1.2-0.2-2.3-0.5-3.2c-0.3-1-0.8-1.8-1.4-2.4c-0.6-0.7-1.3-1.2-2.2-1.5
		c-0.9-0.4-1.8-0.5-2.9-0.5h-4.2V25h4.2c1.1,0,2-0.2,2.9-0.5c0.9-0.4,1.6-0.9,2.2-1.5c0.6-0.7,1.1-1.5,1.4-2.4
		C322.2,19.5,322.4,18.4,322.4,17.2 M326.5,17.2c0,1.6-0.3,3.1-0.8,4.4c-0.5,1.3-1.3,2.5-2.3,3.5s-2.1,1.7-3.5,2.3
		c-1.4,0.5-2.9,0.8-4.5,0.8h-8.3V6.3h8.3c1.7,0,3.2,0.3,4.5,0.8c1.4,0.5,2.5,1.3,3.5,2.3s1.7,2.1,2.3,3.5
		C326.3,14.1,326.5,15.6,326.5,17.2z"/>
	<path id="XMLID_25_" class="st0" d="M347.3,24.8c0.8,0,1.5-0.1,2.1-0.4c0.6-0.3,1.1-0.6,1.6-1.1c0.4-0.5,0.8-1,1-1.7
		c0.2-0.7,0.3-1.4,0.3-2.3v-13h4.1v13.1c0,1.3-0.2,2.5-0.6,3.6s-1,2.1-1.8,2.9c-0.8,0.8-1.7,1.4-2.9,1.9c-1.1,0.4-2.4,0.7-3.8,0.7
		s-2.7-0.2-3.8-0.7c-1.1-0.4-2.1-1.1-2.8-1.9c-0.8-0.8-1.4-1.8-1.8-2.9c-0.4-1.1-0.6-2.3-0.6-3.6V6.3h4.1v13.1
		c0,0.8,0.1,1.6,0.3,2.3s0.5,1.3,1,1.7c0.4,0.5,0.9,0.8,1.6,1.1C345.8,24.7,346.5,24.8,347.3,24.8"/>
	<polygon id="XMLID_24_" class="st0" points="373.3,24.8 382.1,24.8 382.1,28.1 369.3,28.1 369.3,6.3 373.3,6.3 	"/>
	<path id="XMLID_34_" class="st0" d="M409.2,17.2c0-1.2-0.2-2.3-0.5-3.2c-0.3-1-0.8-1.8-1.4-2.4c-0.6-0.7-1.3-1.2-2.2-1.5
		c-0.9-0.4-1.8-0.5-2.9-0.5s-2,0.2-2.9,0.5c-0.9,0.4-1.6,0.9-2.2,1.5c-0.6,0.7-1.1,1.5-1.4,2.4s-0.5,2-0.5,3.2s0.2,2.3,0.5,3.2
		c0.3,1,0.8,1.8,1.4,2.4c0.6,0.7,1.3,1.2,2.2,1.5c0.9,0.4,1.8,0.5,2.9,0.5s2-0.2,2.9-0.5c0.9-0.4,1.6-0.9,2.2-1.5
		c0.6-0.7,1.1-1.5,1.4-2.4C409.1,19.5,409.2,18.4,409.2,17.2 M413.4,17.2c0,1.6-0.3,3.1-0.8,4.5s-1.3,2.6-2.3,3.5
		c-1,1-2.1,1.8-3.5,2.3c-1.4,0.6-2.9,0.8-4.5,0.8s-3.2-0.3-4.5-0.8c-1.4-0.6-2.5-1.3-3.5-2.3s-1.7-2.2-2.3-3.5
		c-0.5-1.4-0.8-2.8-0.8-4.5c0-1.6,0.3-3.1,0.8-4.5s1.3-2.5,2.3-3.5s2.1-1.8,3.5-2.3c1.4-0.6,2.9-0.8,4.5-0.8s3.2,0.3,4.5,0.8
		c1.4,0.6,2.5,1.3,3.5,2.3s1.7,2.2,2.3,3.5C413.1,14.1,413.4,15.6,413.4,17.2z"/>
	<path id="XMLID_21_" class="st0" d="M437.1,10.2c-0.1,0.2-0.2,0.4-0.4,0.5c-0.1,0.1-0.3,0.1-0.5,0.1s-0.4-0.1-0.7-0.2
		c-0.3-0.2-0.5-0.3-0.9-0.5c-0.3-0.2-0.7-0.4-1.2-0.5c-0.5-0.2-1-0.2-1.6-0.2s-1.1,0.1-1.5,0.2c-0.4,0.1-0.8,0.3-1.1,0.6
		c-0.3,0.2-0.5,0.5-0.6,0.9c-0.1,0.3-0.2,0.7-0.2,1.1c0,0.5,0.1,0.9,0.4,1.3c0.3,0.3,0.7,0.6,1.1,0.9c0.5,0.2,1,0.5,1.6,0.7
		s1.2,0.4,1.9,0.6c0.6,0.2,1.2,0.5,1.8,0.8c0.6,0.3,1.1,0.7,1.6,1.1c0.5,0.4,0.9,1,1.1,1.6c0.3,0.6,0.4,1.4,0.4,2.3
		c0,1-0.2,1.9-0.5,2.8c-0.3,0.9-0.8,1.6-1.5,2.3c-0.7,0.6-1.4,1.1-2.4,1.5c-0.9,0.4-2,0.5-3.2,0.5c-0.7,0-1.4-0.1-2.1-0.2
		c-0.7-0.1-1.3-0.3-1.9-0.6s-1.2-0.6-1.7-0.9c-0.5-0.4-1-0.7-1.4-1.2l1.2-2c0.1-0.1,0.2-0.3,0.4-0.4c0.2-0.1,0.3-0.1,0.5-0.1
		c0.3,0,0.5,0.1,0.8,0.3s0.6,0.4,1,0.7s0.9,0.5,1.4,0.7s1.2,0.3,1.9,0.3c1.2,0,2.1-0.3,2.7-0.8s1-1.3,1-2.4c0-0.6-0.1-1-0.4-1.4
		s-0.7-0.7-1.1-0.9c-0.5-0.2-1-0.5-1.6-0.6c-0.6-0.2-1.2-0.4-1.8-0.6c-0.6-0.2-1.2-0.4-1.8-0.7c-0.6-0.3-1.1-0.7-1.6-1.1
		c-0.5-0.5-0.9-1-1.1-1.7c-0.3-0.7-0.4-1.5-0.4-2.5c0-0.8,0.2-1.6,0.5-2.3c0.3-0.8,0.8-1.4,1.4-2s1.4-1.1,2.2-1.4
		c0.9-0.4,1.9-0.5,3-0.5c1.3,0,2.5,0.2,3.6,0.6c1.1,0.4,2,1,2.8,1.7L437.1,10.2z"/>
</g>
<g>
	<polygon class="st1" points="157.5,12.7 157.5,26.8 156.7,26.3 156.7,10.2 185.2,29.2 213.7,10.2 213.7,26.3 212.9,26.8 
		212.9,12.7 185.2,31.1 	"/>
	<polygon class="st1" points="161.4,4.8 185.2,-11.1 208.9,4.8 207.8,5.5 185.2,-9.6 162.5,5.5 	"/>
	<polygon class="st1" points="165.1,31.9 165.1,30.3 185.2,43.7 205.3,30.3 205.3,31.9 185.2,45.2 	"/>
</g>
</svg>
